<?xml version="1.0" encoding="UTF-8"?>
<!DOCTYPE svg PUBLIC "-//W3C//DTD SVG 1.1//EN" "http://www.w3.org/Graphics/SVG/1.1/DTD/svg11.dtd">
<svg xmlns="http://www.w3.org/2000/svg" version="1.1" width="1200px" height="1200px" style="shape-rendering:geometricPrecision; text-rendering:geometricPrecision; image-rendering:optimizeQuality; fill-rule:evenodd; clip-rule:evenodd" xmlns:xlink="http://www.w3.org/1999/xlink">
<g><path style="opacity:1" fill="#eccec4" d="M -0.5,-0.5 C 399.5,-0.5 799.5,-0.5 1199.5,-0.5C 1199.5,399.5 1199.5,799.5 1199.5,1199.5C 799.5,1199.5 399.5,1199.5 -0.5,1199.5C -0.5,799.5 -0.5,399.5 -0.5,-0.5 Z"/></g>
<g><path style="opacity:1" fill="#ab773d" d="M 303.5,174.5 C 500.833,174.5 698.167,174.5 895.5,174.5C 895.5,457.833 895.5,741.167 895.5,1024.5C 698.167,1024.5 500.833,1024.5 303.5,1024.5C 303.5,741.167 303.5,457.833 303.5,174.5 Z"/></g>
<g><path style="opacity:1" fill="#bb8b5c" d="M 316.5,187.5 C 316.5,462.167 316.5,736.833 316.5,1011.5C 505.167,1011.5 693.833,1011.5 882.5,1011.5C 882.5,736.833 882.5,462.167 882.5,187.5C 883.5,462.333 883.833,737.333 883.5,1012.5C 694.167,1012.5 504.833,1012.5 315.5,1012.5C 315.167,737.333 315.5,462.333 316.5,187.5 Z"/></g>
<g><path style="opacity:1" fill="#eccec4" d="M 316.5,187.5 C 505.167,187.5 693.833,187.5 882.5,187.5C 882.5,462.167 882.5,736.833 882.5,1011.5C 693.833,1011.5 505.167,1011.5 316.5,1011.5C 316.5,736.833 316.5,462.167 316.5,187.5 Z"/></g>
<g><path style="opacity:1" fill="#c99e7b" d="M 799.5,840.5 C 798.167,844.833 798.167,849.167 799.5,853.5C 799.44,854.043 799.107,854.376 798.5,854.5C 797.167,849.5 797.167,844.5 798.5,839.5C 799.107,839.624 799.44,839.957 799.5,840.5 Z"/></g>
<g><path style="opacity:1" fill="#c99e7b" d="M 636.5,840.5 C 635.167,844.833 635.167,849.167 636.5,853.5C 636.44,854.043 636.107,854.376 635.5,854.5C 634.167,849.5 634.167,844.5 635.5,839.5C 636.107,839.624 636.44,839.957 636.5,840.5 Z"/></g>
<g><path style="opacity:1" fill="#be8f62" d="M 712.5,822.5 C 713.494,831.986 713.827,841.652 713.5,851.5C 715.099,851.232 716.432,851.566 717.5,852.5C 715.833,852.5 714.167,852.5 712.5,852.5C 712.5,842.5 712.5,832.5 712.5,822.5 Z"/></g>
<g><path style="opacity:1" fill="#ba895a" d="M 536.5,825.5 C 537.468,827.607 537.802,829.941 537.5,832.5C 529.833,832.5 522.167,832.5 514.5,832.5C 514.5,831.833 514.5,831.167 514.5,830.5C 515.833,830.5 517.167,830.5 518.5,830.5C 524.31,831.49 530.31,831.823 536.5,831.5C 536.5,829.5 536.5,827.5 536.5,825.5 Z"/></g>
<g><path style="opacity:1" fill="#cda280" d="M 697.5,820.5 C 698.494,830.987 698.828,841.654 698.5,852.5C 697.167,852.5 695.833,852.5 694.5,852.5C 695.209,851.596 696.209,851.263 697.5,851.5C 697.5,841.167 697.5,830.833 697.5,820.5 Z"/></g>
<g><path style="opacity:1" fill="#ad7941" d="M 636.5,853.5 C 635.167,849.167 635.167,844.833 636.5,840.5C 639.913,851.789 647.08,855.122 658,850.5C 658.758,848.231 658.591,846.064 657.5,844C 651.769,842.201 646.102,840.201 640.5,838C 635.283,832.704 634.116,826.537 637,819.5C 643.328,813.128 650.661,811.795 659,815.5C 660.711,815.561 662.044,814.894 663,813.5C 663.667,817.5 663.667,821.5 663,825.5C 658.935,816.148 652.268,813.481 643,817.5C 642.257,819.441 642.424,821.274 643.5,823C 649.5,825.333 655.5,827.667 661.5,830C 669.34,839.925 667.673,847.925 656.5,854C 650.379,855.081 644.546,854.247 639,851.5C 637.699,851.639 636.866,852.305 636.5,853.5 Z"/></g>
<g><path style="opacity:1" fill="#ad7941" d="M 799.5,853.5 C 798.167,849.167 798.167,844.833 799.5,840.5C 802.913,851.789 810.08,855.122 821,850.5C 821.758,848.231 821.591,846.064 820.5,844C 814.769,842.201 809.102,840.201 803.5,838C 798.283,832.704 797.116,826.537 800,819.5C 806.328,813.128 813.661,811.795 822,815.5C 823.711,815.561 825.044,814.894 826,813.5C 826.667,817.5 826.667,821.5 826,825.5C 822.03,815.842 815.363,813.176 806,817.5C 805.257,819.441 805.424,821.274 806.5,823C 812.5,825.333 818.5,827.667 824.5,830C 832.34,839.925 830.673,847.925 819.5,854C 813.379,855.081 807.546,854.247 802,851.5C 800.699,851.639 799.866,852.305 799.5,853.5 Z"/></g>
<g><path style="opacity:1" fill="#d9b399" d="M 582.5,815.5 C 584.167,815.5 585.833,815.5 587.5,815.5C 587.5,827.833 587.5,840.167 587.5,852.5C 585.833,852.5 584.167,852.5 582.5,852.5C 583.568,851.566 584.901,851.232 586.5,851.5C 586.5,839.833 586.5,828.167 586.5,816.5C 584.901,816.768 583.568,816.434 582.5,815.5 Z"/></g>
<g><path style="opacity:1" fill="#d0a788" d="M 457.5,815.5 C 459.167,815.5 460.833,815.5 462.5,815.5C 462.5,827.833 462.5,840.167 462.5,852.5C 460.833,852.5 459.167,852.5 457.5,852.5C 458.568,851.566 459.901,851.232 461.5,851.5C 461.5,839.833 461.5,828.167 461.5,816.5C 459.901,816.768 458.568,816.434 457.5,815.5 Z"/></g>
<g><path style="opacity:1" fill="#ac7940" d="M 734.5,813.5 C 759.376,812.9 767.21,824.234 758,847.5C 751.397,853.778 743.563,855.945 734.5,854C 724.114,851.108 719.447,844.275 720.5,833.5C 720.12,823.225 724.787,816.558 734.5,813.5 Z"/></g>
<g><path style="opacity:1" fill="#ebccc1" d="M 738.5,815.5 C 741.547,814.855 743.713,815.855 745,818.5C 745.667,828.833 745.667,839.167 745,849.5C 743.695,852.306 741.528,853.14 738.5,852C 737.107,850.829 736.273,849.329 736,847.5C 735.333,838.5 735.333,829.5 736,820.5C 736.366,818.548 737.199,816.882 738.5,815.5 Z"/></g>
<g><path style="opacity:1" fill="#ab773d" d="M 712.5,822.5 C 712.5,832.5 712.5,842.5 712.5,852.5C 714.167,852.5 715.833,852.5 717.5,852.5C 709.833,853.833 702.167,853.833 694.5,852.5C 695.833,852.5 697.167,852.5 698.5,852.5C 698.828,841.654 698.494,830.987 697.5,820.5C 697.582,818.748 696.749,817.748 695,817.5C 693.019,817.899 691.519,818.899 690.5,820.5C 690.167,820.5 689.833,820.5 689.5,820.5C 691.329,815.412 694.995,813.079 700.5,813.5C 706.819,813.493 710.819,816.493 712.5,822.5 Z"/></g>
<g><path style="opacity:1" fill="#ab773e" d="M 609.5,853.5 C 610.209,852.596 611.209,852.263 612.5,852.5C 612.828,841.321 612.495,830.321 611.5,819.5C 610.686,817.727 609.352,817.227 607.5,818C 605.383,819.731 603.883,821.898 603,824.5C 602.5,833.827 602.334,843.161 602.5,852.5C 597.711,853.784 591.045,853.784 582.5,852.5C 584.167,852.5 585.833,852.5 587.5,852.5C 587.5,840.167 587.5,827.833 587.5,815.5C 585.833,815.5 584.167,815.5 582.5,815.5C 588.979,814.509 595.646,814.176 602.5,814.5C 602.338,816.527 602.505,818.527 603,820.5C 607.456,813.43 613.622,811.596 621.5,815C 623.552,815.93 625.052,817.43 626,819.5C 627.454,830.397 627.954,841.397 627.5,852.5C 624.234,853.572 618.234,853.905 609.5,853.5 Z"/></g>
<g><path style="opacity:1" fill="#d5af93" d="M 611.5,819.5 C 612.495,830.321 612.828,841.321 612.5,852.5C 611.209,852.263 610.209,852.596 609.5,853.5C 608.957,853.44 608.624,853.107 608.5,852.5C 609.325,851.614 610.325,851.281 611.5,851.5C 611.5,840.833 611.5,830.167 611.5,819.5 Z"/></g>
<g><path style="opacity:1" fill="#ad7a42" d="M 556.5,813.5 C 562.865,812.901 568.865,814.068 574.5,817C 578.923,821.221 580.59,826.387 579.5,832.5C 571.833,832.5 564.167,832.5 556.5,832.5C 556.087,838.037 556.92,843.37 559,848.5C 565.23,852.93 570.897,852.263 576,846.5C 576.748,844.668 577.748,843.001 579,841.5C 578.289,848.879 574.122,853.045 566.5,854C 546.188,855.018 538.021,845.518 542,825.5C 545.069,819.235 549.902,815.235 556.5,813.5 Z"/></g>
<g><path style="opacity:1" fill="#e9c9bc" d="M 559.5,815.5 C 561.144,815.286 562.644,815.62 564,816.5C 565.309,821.066 565.809,825.733 565.5,830.5C 562.5,830.5 559.5,830.5 556.5,830.5C 555.773,825.035 556.773,820.035 559.5,815.5 Z"/></g>
<g><path style="opacity:1" fill="#ad7a41" d="M 536.5,825.5 C 536.5,827.5 536.5,829.5 536.5,831.5C 530.31,831.823 524.31,831.49 518.5,830.5C 519.833,830.5 521.167,830.5 522.5,830.5C 522.666,826.154 522.499,821.821 522,817.5C 519.16,814.629 516.826,814.963 515,818.5C 514.501,822.486 514.334,826.486 514.5,830.5C 514.5,831.167 514.5,831.833 514.5,832.5C 514.334,836.846 514.501,841.179 515,845.5C 518.622,851.702 523.788,853.202 530.5,850C 532.956,847.592 534.789,844.759 536,841.5C 535.423,848.42 531.589,852.586 524.5,854C 503.329,855.209 495.163,845.376 500,824.5C 508.247,812.923 518.747,810.423 531.5,817C 534.596,819.029 536.262,821.862 536.5,825.5 Z"/></g>
<g><path style="opacity:1" fill="#eccdc2" d="M 518.5,830.5 C 517.167,830.5 515.833,830.5 514.5,830.5C 514.334,826.486 514.501,822.486 515,818.5C 516.826,814.963 519.16,814.629 522,817.5C 522.499,821.821 522.666,826.154 522.5,830.5C 521.167,830.5 519.833,830.5 518.5,830.5 Z"/></g>
<g><path style="opacity:1" fill="#ac783f" d="M 457.5,852.5 C 459.167,852.5 460.833,852.5 462.5,852.5C 462.5,840.167 462.5,827.833 462.5,815.5C 460.833,815.5 459.167,815.5 457.5,815.5C 463.979,814.509 470.646,814.176 477.5,814.5C 477.34,816.199 477.506,817.866 478,819.5C 483.398,812.441 489.398,811.774 496,817.5C 498.309,827.022 494.809,830.689 485.5,828.5C 483.771,826.149 483.104,823.482 483.5,820.5C 484.833,820.5 486.167,820.5 487.5,820.5C 487.086,816.3 485.086,815.467 481.5,818C 479.959,819.579 478.792,821.413 478,823.5C 477.5,832.827 477.334,842.161 477.5,851.5C 479.604,851.201 481.604,851.534 483.5,852.5C 474.675,853.821 466.009,853.821 457.5,852.5 Z"/></g>
<g><path style="opacity:1" fill="#ad7941" d="M 433.5,813.5 C 440.255,812.668 446.589,813.835 452.5,817C 456.779,822.033 456.446,826.7 451.5,831C 443.828,832.496 440.495,829.33 441.5,821.5C 442.5,821.5 443.5,821.5 444.5,821.5C 445.247,815.933 442.913,814.1 437.5,816C 436.54,817.419 435.707,818.919 435,820.5C 434.333,828.833 434.333,837.167 435,845.5C 436.875,851.155 440.708,852.989 446.5,851C 450.863,848.802 453.53,845.302 454.5,840.5C 454.835,847.898 451.169,852.398 443.5,854C 424.85,855.682 416.683,847.182 419,828.5C 421.316,821.018 426.149,816.018 433.5,813.5 Z"/></g>
<g><path style="opacity:1" fill="#ae7a42" d="M 780.5,800.5 C 781.5,800.5 782.5,800.5 783.5,800.5C 783.5,805.167 783.5,809.833 783.5,814.5C 796.833,814.833 796.833,815.167 783.5,815.5C 783.333,826.838 783.5,838.172 784,849.5C 785.938,851.978 788.105,852.145 790.5,850C 791.786,847.978 792.786,845.811 793.5,843.5C 794.002,842.479 794.668,842.312 795.5,843C 793.875,851.115 788.875,854.948 780.5,854.5C 775.442,854.722 771.609,852.722 769,848.5C 767.569,837.578 767.069,826.578 767.5,815.5C 762.167,815.167 762.167,814.833 767.5,814.5C 767.5,810.833 767.5,807.167 767.5,803.5C 772.12,803.26 776.453,802.26 780.5,800.5 Z"/></g>
<g><path style="opacity:1" fill="#ad7941" d="M 386.5,795.5 C 392.921,795.326 399.254,795.993 405.5,797.5C 406.772,797.43 407.938,797.097 409,796.5C 409.32,801.023 409.82,805.523 410.5,810C 410.167,810.833 409.833,811.667 409.5,812.5C 406.722,808.548 403.722,804.714 400.5,801C 395.531,797.379 390.198,796.712 384.5,799C 379.167,803.333 379.167,807.667 384.5,812C 389.951,814.595 395.618,816.595 401.5,818C 411.805,822.11 415.639,829.61 413,840.5C 409.524,850.29 402.524,854.957 392,854.5C 387.105,854.288 382.272,853.621 377.5,852.5C 375.956,852.79 374.623,853.456 373.5,854.5C 372.336,848.193 372.169,841.859 373,835.5C 377.167,842.333 382.667,847.833 389.5,852C 400.727,854.759 405.561,850.592 404,839.5C 403.167,838.667 402.333,837.833 401.5,837C 394.086,834.195 386.753,831.195 379.5,828C 370.167,818.333 370.167,808.667 379.5,799C 381.925,797.787 384.259,796.621 386.5,795.5 Z"/></g>
<g><path style="opacity:1" fill="#d1a889" d="M 668.5,792.5 C 670.167,792.5 671.833,792.5 673.5,792.5C 673.5,812.5 673.5,832.5 673.5,852.5C 671.833,852.5 670.167,852.5 668.5,852.5C 669.568,851.566 670.901,851.232 672.5,851.5C 672.5,832.167 672.5,812.833 672.5,793.5C 670.901,793.768 669.568,793.434 668.5,792.5 Z"/></g>
<g><path style="opacity:1" fill="#b88655" d="M 687.5,791.5 C 688.167,801.167 688.833,810.833 689.5,820.5C 689.833,820.5 690.167,820.5 690.5,820.5C 690.5,821.167 690.167,821.5 689.5,821.5C 687.526,811.889 686.859,801.889 687.5,791.5 Z"/></g>
<g><path style="opacity:1" fill="#ab773d" d="M 668.5,792.5 C 674.645,791.51 680.978,791.177 687.5,791.5C 686.859,801.889 687.526,811.889 689.5,821.5C 688.55,831.448 688.216,841.448 688.5,851.5C 689.675,851.281 690.675,851.614 691.5,852.5C 683.677,853.82 676.01,853.82 668.5,852.5C 670.167,852.5 671.833,852.5 673.5,852.5C 673.5,832.5 673.5,812.5 673.5,792.5C 671.833,792.5 670.167,792.5 668.5,792.5 Z"/></g>
<g><path style="opacity:1" fill="#d4ac8f" d="M 608.5,731.5 C 609.488,736.64 609.821,741.974 609.5,747.5C 606.833,747.5 604.167,747.5 601.5,747.5C 603.607,746.532 605.941,746.198 608.5,746.5C 608.5,741.5 608.5,736.5 608.5,731.5 Z"/></g>
<g><path style="opacity:1" fill="#d5af93" d="M 485.5,738.5 C 485.5,747.167 485.5,755.833 485.5,764.5C 487.415,764.216 489.081,764.549 490.5,765.5C 488.5,765.5 486.5,765.5 484.5,765.5C 484.173,756.318 484.507,747.318 485.5,738.5 Z"/></g>
<g><path style="opacity:1" fill="#d0a787" d="M 535.5,728.5 C 532.375,729.479 529.042,729.813 525.5,729.5C 525.5,739.833 525.5,750.167 525.5,760.5C 524.506,750.013 524.172,739.346 524.5,728.5C 528.167,728.5 531.833,728.5 535.5,728.5 Z"/></g>
<g><path style="opacity:1" fill="#deb9a3" d="M 438.5,728.5 C 440.167,728.5 441.833,728.5 443.5,728.5C 443.5,740.833 443.5,753.167 443.5,765.5C 441.901,765.232 440.568,765.566 439.5,766.5C 438.957,766.44 438.624,766.107 438.5,765.5C 439.689,764.571 441.022,764.238 442.5,764.5C 442.5,752.833 442.5,741.167 442.5,729.5C 440.901,729.768 439.568,729.434 438.5,728.5 Z"/></g>
<g><path style="opacity:1" fill="#ad7941" d="M 768.5,705.5 C 774.833,705.5 781.167,705.5 787.5,705.5C 787.334,714.839 787.5,724.173 788,733.5C 788.717,732.956 789.217,732.289 789.5,731.5C 796.143,724.93 802.976,724.93 810,731.5C 811.439,733.275 812.439,735.275 813,737.5C 813.667,743.833 813.667,750.167 813,756.5C 809.297,765.823 802.463,769.323 792.5,767C 790.333,766.167 788.833,764.667 788,762.5C 787.51,763.793 787.343,765.127 787.5,766.5C 779.743,766.943 774.743,766.61 772.5,765.5C 772.5,745.833 772.5,726.167 772.5,706.5C 770.901,706.768 769.568,706.434 768.5,705.5 Z"/></g>
<g><path style="opacity:1" fill="#eacbc0" d="M 792.5,730.5 C 794.144,730.286 795.644,730.62 797,731.5C 799,741.833 799,752.167 797,762.5C 793.844,765.399 791.178,765.065 789,761.5C 788.333,752.833 788.333,744.167 789,735.5C 789.997,733.677 791.164,732.01 792.5,730.5 Z"/></g>
<g><path style="opacity:1" fill="#ca9f7c" d="M 761.5,727.5 C 762.495,739.655 762.829,751.989 762.5,764.5C 764.099,764.232 765.432,764.566 766.5,765.5C 764.833,765.5 763.167,765.5 761.5,765.5C 761.5,752.833 761.5,740.167 761.5,727.5 Z"/></g>
<g><path style="opacity:1" fill="#ab773d" d="M 746.5,756.5 C 747.494,747.348 747.827,738.015 747.5,728.5C 745.901,728.768 744.568,728.434 743.5,727.5C 749.5,727.5 755.5,727.5 761.5,727.5C 761.5,740.167 761.5,752.833 761.5,765.5C 763.167,765.5 764.833,765.5 766.5,765.5C 760.355,766.49 754.022,766.823 747.5,766.5C 747.66,764.801 747.494,763.134 747,761.5C 740.889,768.28 733.889,769.28 726,764.5C 725,762.5 724,760.5 723,758.5C 722.5,748.506 722.334,738.506 722.5,728.5C 724.743,727.39 729.743,727.057 737.5,727.5C 737.333,738.505 737.5,749.505 738,760.5C 738.949,763.2 740.783,764.033 743.5,763C 745.171,761.157 746.171,758.991 746.5,756.5 Z"/></g>
<g><path style="opacity:1" fill="#c09166" d="M 743.5,727.5 C 744.568,728.434 745.901,728.768 747.5,728.5C 747.827,738.015 747.494,747.348 746.5,756.5C 746.5,747.5 746.5,738.5 746.5,729.5C 745.022,729.762 743.689,729.429 742.5,728.5C 742.624,727.893 742.957,727.56 743.5,727.5 Z"/></g>
<g><path style="opacity:1" fill="#ac7940" d="M 601.5,747.5 C 604.167,747.5 606.833,747.5 609.5,747.5C 609.821,741.974 609.488,736.64 608.5,731.5C 607.816,727.829 605.816,726.829 602.5,728.5C 601.548,730.045 601.215,731.712 601.5,733.5C 602.5,733.5 603.5,733.5 604.5,733.5C 604.687,741.147 601.02,744.314 593.5,743C 589.285,738.042 589.619,733.375 594.5,729C 602.792,725.763 611.126,725.763 619.5,729C 621.617,730.731 623.117,732.898 624,735.5C 624.333,744.5 624.667,753.5 625,762.5C 626,763.833 627,763.833 628,762.5C 628.939,759.879 629.772,757.212 630.5,754.5C 631.373,765.945 626.04,770.111 614.5,767C 612.415,765.959 610.748,764.459 609.5,762.5C 605.574,767.123 600.574,768.623 594.5,767C 588.766,763.82 586.933,758.987 589,752.5C 592.33,748.752 596.497,747.085 601.5,747.5 Z"/></g>
<g><path style="opacity:1" fill="#e7c7b9" d="M 606.5,748.5 C 607.5,748.5 608.5,748.5 609.5,748.5C 609.666,752.514 609.499,756.514 609,760.5C 607.814,762.677 605.981,763.677 603.5,763.5C 603.334,759.486 603.501,755.486 604,751.5C 605.045,750.627 605.878,749.627 606.5,748.5 Z"/></g>
<g><path style="opacity:1" fill="#ca9f7c" d="M 580.5,727.5 C 581.495,739.655 581.829,751.989 581.5,764.5C 583.099,764.232 584.432,764.566 585.5,765.5C 583.833,765.5 582.167,765.5 580.5,765.5C 580.5,752.833 580.5,740.167 580.5,727.5 Z"/></g>
<g><path style="opacity:1" fill="#ab783e" d="M 580.5,727.5 C 580.5,740.167 580.5,752.833 580.5,765.5C 582.167,765.5 583.833,765.5 585.5,765.5C 579.355,766.49 573.022,766.823 566.5,766.5C 566.66,764.801 566.494,763.134 566,761.5C 559.889,768.28 552.889,769.28 545,764.5C 543.725,762.283 542.725,759.949 542,757.5C 541.5,747.839 541.334,738.172 541.5,728.5C 543.743,727.39 548.743,727.057 556.5,727.5C 556.333,738.505 556.5,749.505 557,760.5C 560.615,764.765 563.281,764.098 565,758.5C 565.5,748.506 565.666,738.506 565.5,728.5C 568.423,727.445 573.423,727.112 580.5,727.5 Z"/></g>
<g><path style="opacity:1" fill="#ac783e" d="M 485.5,738.5 C 484.507,747.318 484.173,756.318 484.5,765.5C 486.5,765.5 488.5,765.5 490.5,765.5C 480.956,766.782 473.956,766.782 469.5,765.5C 469.5,753.167 469.5,740.833 469.5,728.5C 471.743,727.39 476.743,727.057 484.5,727.5C 484.338,729.527 484.505,731.527 485,733.5C 488.741,726.577 494.241,724.744 501.5,728C 505.034,732.076 505.367,736.409 502.5,741C 494.428,744.741 490.428,742.241 490.5,733.5C 491.833,733.5 493.167,733.5 494.5,733.5C 494.5,732.167 494.5,730.833 494.5,729.5C 489.209,730.124 486.209,733.124 485.5,738.5 Z"/></g>
<g><path style="opacity:1" fill="#aa763c" d="M 438.5,728.5 C 444.979,727.509 451.646,727.176 458.5,727.5C 458.5,740.167 458.5,752.833 458.5,765.5C 454.895,766.564 448.562,766.897 439.5,766.5C 440.568,765.566 441.901,765.232 443.5,765.5C 443.5,753.167 443.5,740.833 443.5,728.5C 441.833,728.5 440.167,728.5 438.5,728.5 Z"/></g>
<g><path style="opacity:1" fill="#ac783f" d="M 535.5,728.5 C 531.833,728.5 528.167,728.5 524.5,728.5C 524.172,739.346 524.506,750.013 525.5,760.5C 526.894,764.906 529.394,765.573 533,762.5C 533.853,760.065 534.853,757.731 536,755.5C 536.702,761.814 533.868,765.648 527.5,767C 519.488,769.238 513.655,766.738 510,759.5C 509.5,749.172 509.334,738.839 509.5,728.5C 504.167,728.167 504.167,727.833 509.5,727.5C 509.5,723.833 509.5,720.167 509.5,716.5C 514.468,715.341 519.468,714.341 524.5,713.5C 524.5,718.167 524.5,722.833 524.5,727.5C 528.371,727.185 532.038,727.518 535.5,728.5 Z"/></g>
<g><path style="opacity:1" fill="#c29468" d="M 659.5,709.5 C 660.919,710.451 662.585,710.784 664.5,710.5C 664.83,728.674 664.497,746.674 663.5,764.5C 663.5,746.833 663.5,729.167 663.5,711.5C 661.712,711.785 660.045,711.452 658.5,710.5C 658.624,709.893 658.957,709.56 659.5,709.5 Z"/></g>
<g><path style="opacity:1" fill="#cda27f" d="M 768.5,705.5 C 774.979,704.509 781.646,704.176 788.5,704.5C 788.173,713.682 788.507,722.682 789.5,731.5C 789.217,732.289 788.717,732.956 788,733.5C 787.5,724.173 787.334,714.839 787.5,705.5C 781.167,705.5 774.833,705.5 768.5,705.5 Z"/></g>
<g><path style="opacity:1" fill="#ab783e" d="M 659.5,709.5 C 668.017,709.174 676.35,709.507 684.5,710.5C 682.833,710.5 681.167,710.5 679.5,710.5C 679.174,719.349 679.507,728.016 680.5,736.5C 685.5,736.5 690.5,736.5 695.5,736.5C 696.493,728.016 696.826,719.349 696.5,710.5C 694.833,710.5 693.167,710.5 691.5,710.5C 701.044,709.218 708.044,709.218 712.5,710.5C 712.5,728.833 712.5,747.167 712.5,765.5C 708.044,766.782 701.044,766.782 691.5,765.5C 693.167,765.5 694.833,765.5 696.5,765.5C 696.827,756.318 696.493,747.318 695.5,738.5C 690.5,738.5 685.5,738.5 680.5,738.5C 679.507,747.318 679.173,756.318 679.5,765.5C 681.167,765.5 682.833,765.5 684.5,765.5C 675.991,766.821 667.325,766.821 658.5,765.5C 660.045,764.548 661.712,764.215 663.5,764.5C 664.497,746.674 664.83,728.674 664.5,710.5C 662.585,710.784 660.919,710.451 659.5,709.5 Z"/></g>
<g><path style="opacity:1" fill="#d3ab8d" d="M 695.5,738.5 C 696.493,747.318 696.827,756.318 696.5,765.5C 694.833,765.5 693.167,765.5 691.5,765.5C 692.568,764.566 693.901,764.232 695.5,764.5C 695.5,755.833 695.5,747.167 695.5,738.5 Z"/></g>
<g><path style="opacity:1" fill="#d8b198" d="M 680.5,738.5 C 680.5,747.167 680.5,755.833 680.5,764.5C 682.099,764.232 683.432,764.566 684.5,765.5C 682.833,765.5 681.167,765.5 679.5,765.5C 679.173,756.318 679.507,747.318 680.5,738.5 Z"/></g>
<g><path style="opacity:1" fill="#d2ab8c" d="M 691.5,710.5 C 693.167,710.5 694.833,710.5 696.5,710.5C 696.826,719.349 696.493,728.016 695.5,736.5C 695.5,728.167 695.5,719.833 695.5,711.5C 693.901,711.768 692.568,711.434 691.5,710.5 Z"/></g>
<g><path style="opacity:1" fill="#d8b197" d="M 684.5,710.5 C 683.432,711.434 682.099,711.768 680.5,711.5C 680.5,719.833 680.5,728.167 680.5,736.5C 679.507,728.016 679.174,719.349 679.5,710.5C 681.167,710.5 682.833,710.5 684.5,710.5 Z"/></g>
<g><path style="opacity:1" fill="#ac7940" d="M 383.5,709.5 C 392.525,709.168 401.525,709.502 410.5,710.5C 408.955,711.452 407.288,711.785 405.5,711.5C 409.231,724.692 413.564,737.692 418.5,750.5C 423.31,737.714 427.977,724.881 432.5,712C 430.423,711.808 428.423,711.308 426.5,710.5C 430.459,709.34 434.459,709.173 438.5,710C 436.152,710.11 434.652,711.277 434,713.5C 428,730.833 422,748.167 416,765.5C 413.624,767.744 410.957,768.077 408,766.5C 401.667,749.167 395.333,731.833 389,714.5C 387.366,712.503 385.532,710.836 383.5,709.5 Z"/></g>
<g><path style="opacity:1" fill="#ae7a42" d="M 447.5,706.5 C 456.161,705.329 459.994,708.996 459,717.5C 454.284,722.395 449.284,722.728 444,718.5C 441.458,713.361 442.624,709.361 447.5,706.5 Z"/></g>
<g><path style="opacity:1" fill="#d7b197" d="M 651.5,704.5 C 652.497,724.326 652.83,744.326 652.5,764.5C 654.099,764.232 655.432,764.566 656.5,765.5C 654.833,765.5 653.167,765.5 651.5,765.5C 651.5,745.167 651.5,724.833 651.5,704.5 Z"/></g>
<g><path style="opacity:1" fill="#ab773d" d="M 651.5,704.5 C 651.5,724.833 651.5,745.167 651.5,765.5C 653.167,765.5 654.833,765.5 656.5,765.5C 647.287,766.783 640.62,766.783 636.5,765.5C 636.5,745.5 636.5,725.5 636.5,705.5C 638.039,704.3 643.039,703.967 651.5,704.5 Z"/></g>
<g><path style="opacity:1" fill="#bc8c5e" d="M 640.5,560.5 C 640.833,560.5 641.167,560.5 641.5,560.5C 641.5,573.833 641.5,587.167 641.5,600.5C 675.004,600.168 708.338,600.502 741.5,601.5C 707.833,601.5 674.167,601.5 640.5,601.5C 640.5,587.833 640.5,574.167 640.5,560.5 Z"/></g>
<g><path style="opacity:1" fill="#c89c76" d="M 452.5,494.5 C 452.5,529.833 452.5,565.167 452.5,600.5C 487.833,600.5 523.167,600.5 558.5,600.5C 523.004,601.498 487.337,601.832 451.5,601.5C 451.168,565.663 451.502,529.996 452.5,494.5 Z"/></g>
<g><path style="opacity:1" fill="#d0a685" d="M 706.5,494.5 C 706.5,516.5 706.5,538.5 706.5,560.5C 684.833,560.5 663.167,560.5 641.5,560.5C 641.167,560.5 640.833,560.5 640.5,560.5C 661.994,559.503 683.66,559.169 705.5,559.5C 705.169,537.66 705.503,515.994 706.5,494.5 Z"/></g>
<g><path style="opacity:1" fill="#d1a888" d="M 492.5,494.5 C 493.497,515.994 493.831,537.66 493.5,559.5C 515.34,559.169 537.006,559.503 558.5,560.5C 536.5,560.5 514.5,560.5 492.5,560.5C 492.5,538.5 492.5,516.5 492.5,494.5 Z"/></g>
<g><path style="opacity:1" fill="#d7b096" d="M 615.5,493.5 C 615.5,498.5 615.5,503.5 615.5,508.5C 628.5,508.5 641.5,508.5 654.5,508.5C 641.344,509.496 628.01,509.829 614.5,509.5C 614.179,503.974 614.512,498.64 615.5,493.5 Z"/></g>
<g><path style="opacity:1" fill="#ab773d" d="M 706.5,494.5 C 720.167,494.5 733.833,494.5 747.5,494.5C 747.5,530.167 747.5,565.833 747.5,601.5C 745.5,601.5 743.5,601.5 741.5,601.5C 708.338,600.502 675.004,600.168 641.5,600.5C 641.5,587.167 641.5,573.833 641.5,560.5C 663.167,560.5 684.833,560.5 706.5,560.5C 706.5,538.5 706.5,516.5 706.5,494.5 Z"/></g>
<g><path style="opacity:1" fill="#ab763d" d="M 452.5,494.5 C 465.833,494.5 479.167,494.5 492.5,494.5C 492.5,516.5 492.5,538.5 492.5,560.5C 514.5,560.5 536.5,560.5 558.5,560.5C 558.5,573.833 558.5,587.167 558.5,600.5C 523.167,600.5 487.833,600.5 452.5,600.5C 452.5,565.167 452.5,529.833 452.5,494.5 Z"/></g>
<g><path style="opacity:1" fill="#c09064" d="M 654.5,469.5 C 649.833,469.5 645.167,469.5 640.5,469.5C 640.817,473.702 640.483,477.702 639.5,481.5C 639.5,477.167 639.5,472.833 639.5,468.5C 644.695,468.179 649.695,468.513 654.5,469.5 Z"/></g>
<g><path style="opacity:1" fill="#d5ac90" d="M 559.5,469.5 C 554.5,469.5 549.5,469.5 544.5,469.5C 544.5,482.5 544.5,495.5 544.5,508.5C 543.504,495.344 543.171,482.01 543.5,468.5C 549.026,468.179 554.36,468.512 559.5,469.5 Z"/></g>
<g><path style="opacity:1" fill="#ab773d" d="M 654.5,469.5 C 654.5,482.5 654.5,495.5 654.5,508.5C 641.5,508.5 628.5,508.5 615.5,508.5C 615.5,503.5 615.5,498.5 615.5,493.5C 623.5,493.5 631.5,493.5 639.5,493.5C 639.5,489.5 639.5,485.5 639.5,481.5C 640.483,477.702 640.817,473.702 640.5,469.5C 645.167,469.5 649.833,469.5 654.5,469.5 Z"/></g>
<g><path style="opacity:1" fill="#ab773d" d="M 559.5,469.5 C 559.5,477.5 559.5,485.5 559.5,493.5C 567.833,493.5 576.167,493.5 584.5,493.5C 584.5,498.5 584.5,503.5 584.5,508.5C 571.167,508.5 557.833,508.5 544.5,508.5C 544.5,495.5 544.5,482.5 544.5,469.5C 549.5,469.5 554.5,469.5 559.5,469.5 Z"/></g>
<g><path style="opacity:1" fill="#b88755" d="M 639.5,413.5 C 640.492,421.316 640.826,429.316 640.5,437.5C 645.167,437.5 649.833,437.5 654.5,437.5C 649.695,438.487 644.695,438.821 639.5,438.5C 639.5,430.167 639.5,421.833 639.5,413.5 Z"/></g>
<g><path style="opacity:1" fill="#ab773d" d="M 654.5,437.5 C 649.833,437.5 645.167,437.5 640.5,437.5C 640.826,429.316 640.492,421.316 639.5,413.5C 631.5,413.5 623.5,413.5 615.5,413.5C 615.5,408.5 615.5,403.5 615.5,398.5C 628.5,398.5 641.5,398.5 654.5,398.5C 654.5,411.5 654.5,424.5 654.5,437.5 Z"/></g>
<g><path style="opacity:1" fill="#ab773d" d="M 583.5,413.5 C 575.5,413.5 567.5,413.5 559.5,413.5C 559.5,421.833 559.5,430.167 559.5,438.5C 554.5,438.5 549.5,438.5 544.5,438.5C 544.5,425.167 544.5,411.833 544.5,398.5C 557.5,398.5 570.5,398.5 583.5,398.5C 583.5,403.5 583.5,408.5 583.5,413.5 Z"/></g>
<g><path style="opacity:1" fill="#cea381" d="M 583.5,413.5 C 583.5,408.5 583.5,403.5 583.5,398.5C 570.5,398.5 557.5,398.5 544.5,398.5C 544.5,411.833 544.5,425.167 544.5,438.5C 543.504,425.01 543.171,411.344 543.5,397.5C 557.167,397.5 570.833,397.5 584.5,397.5C 584.821,403.026 584.488,408.36 583.5,413.5 Z"/></g>
<g><path style="opacity:1" fill="#d7b196" d="M 640.5,346.5 C 640.833,346.5 641.167,346.5 641.5,346.5C 663.167,346.5 684.833,346.5 706.5,346.5C 706.5,368.5 706.5,390.5 706.5,412.5C 705.503,391.006 705.169,369.34 705.5,347.5C 683.66,347.831 661.994,347.497 640.5,346.5 Z"/></g>
<g><path style="opacity:1" fill="#d9b49c" d="M 558.5,346.5 C 537.006,347.497 515.34,347.831 493.5,347.5C 493.831,369.34 493.497,391.006 492.5,412.5C 492.5,390.5 492.5,368.5 492.5,346.5C 514.5,346.5 536.5,346.5 558.5,346.5 Z"/></g>
<g><path style="opacity:1" fill="#ab763c" d="M 746.5,412.5 C 733.167,412.5 719.833,412.5 706.5,412.5C 706.5,390.5 706.5,368.5 706.5,346.5C 684.833,346.5 663.167,346.5 641.5,346.5C 641.5,333.167 641.5,319.833 641.5,306.5C 676.5,306.5 711.5,306.5 746.5,306.5C 746.5,341.833 746.5,377.167 746.5,412.5 Z"/></g>
<g><path style="opacity:1" fill="#ab763c" d="M 558.5,306.5 C 558.5,319.833 558.5,333.167 558.5,346.5C 536.5,346.5 514.5,346.5 492.5,346.5C 492.5,368.5 492.5,390.5 492.5,412.5C 479.167,412.5 465.833,412.5 452.5,412.5C 452.5,377.167 452.5,341.833 452.5,306.5C 487.833,306.5 523.167,306.5 558.5,306.5 Z"/></g>
<g><path style="opacity:1" fill="#bc8d61" d="M 558.5,306.5 C 523.167,306.5 487.833,306.5 452.5,306.5C 452.5,341.833 452.5,377.167 452.5,412.5C 451.502,377.004 451.168,341.337 451.5,305.5C 487.337,305.168 523.004,305.502 558.5,306.5 Z"/></g>
<g><path style="opacity:1" fill="#bc8d60" d="M 746.5,412.5 C 746.5,377.167 746.5,341.833 746.5,306.5C 711.5,306.5 676.5,306.5 641.5,306.5C 641.5,319.833 641.5,333.167 641.5,346.5C 641.167,346.5 640.833,346.5 640.5,346.5C 640.5,332.833 640.5,319.167 640.5,305.5C 676.167,305.5 711.833,305.5 747.5,305.5C 747.832,341.337 747.498,377.004 746.5,412.5 Z"/></g>
</svg>
