<?xml version="1.0" standalone="no"?>
<!DOCTYPE svg PUBLIC "-//W3C//DTD SVG 20010904//EN"
 "http://www.w3.org/TR/2001/REC-SVG-20010904/DTD/svg10.dtd">
<svg version="1.0" xmlns="http://www.w3.org/2000/svg"
 width="1200.000000pt" height="1200.000000pt" viewBox="0 0 1200.000000 1200.000000"
 preserveAspectRatio="xMidYMid meet">
<metadata>
Created by potrace 1.14, written by Peter Selinger 2001-2017
</metadata>
<g transform="translate(0.000000,1200.000000) scale(0.100000,-0.100000)"
fill="#000000" stroke="none">
<path d="M3039 10228 c-1 -30 -1 -8449 0 -8465 1 -10 600 -13 2961 -13 l2960
0 1 23 c1 29 1 8448 0 8465 -1 9 -600 12 -2961 12 l-2960 0 -1 -22z m5794
-4228 l0 -4115 -2832 -3 c-2691 -2 -2831 -1 -2832 15 0 10 -1 1864 -2 4121
l-2 4102 2834 -2 2834 -3 0 -4115z"/>
<path d="M4526 8932 c-2 -4 -3 -244 -3 -535 l0 -527 206 2 205 3 1 315 c1 173
3 320 3 326 2 8 86 12 295 12 160 0 307 1 325 1 l32 1 0 204 0 204 -530 0
c-291 0 -532 -3 -534 -6z"/>
<path d="M6410 8734 c0 -187 1 -204 18 -205 9 0 157 -1 327 -1 l310 0 0 -316
c-1 -175 1 -323 3 -329 3 -10 53 -13 206 -13 l203 0 -1 533 -1 532 -532 1
-533 1 0 -203z"/>
<path d="M5449 8000 c-3 -54 -4 -349 0 -367 3 -21 8 -23 77 -23 l74 0 0 125 0
125 124 0 124 0 -2 77 -1 78 -197 0 c-171 1 -198 -1 -199 -15z"/>
<path d="M6159 8010 c-1 -3 -2 -38 -3 -77 l-2 -73 106 -1 c58 -1 113 -1 123 0
15 2 17 -10 18 -116 1 -65 1 -121 0 -125 0 -3 33 -6 73 -7 62 -1 74 2 77 17 2
9 4 100 4 202 l-1 185 -197 0 c-108 0 -197 -2 -198 -5z"/>
<path d="M5449 7290 c0 -8 -2 -97 -2 -198 l-2 -182 35 -1 c42 -1 269 -1 326 0
l42 1 -2 73 -1 72 -121 5 -121 5 -1 38 c0 20 -1 74 -1 120 l-1 83 -75 0 c-61
0 -75 -3 -76 -16z"/>
<path d="M6409 7299 c-6 -3 -10 -12 -9 -20 1 -8 2 -60 1 -116 l-1 -103 -123 0
-123 0 2 -72 c1 -40 2 -75 3 -78 1 -3 89 -5 196 -5 167 0 195 2 196 15 3 46 4
357 1 371 -3 12 -17 15 -68 15 -36 0 -70 -3 -75 -7z"/>
<path d="M4523 6518 l0 -533 534 0 533 0 0 205 0 205 -327 0 -328 0 -1 315
c-1 173 -2 321 -3 328 -1 9 -49 12 -205 12 l-203 0 0 -532z"/>
<path d="M7069 7038 c-1 -7 -2 -155 -3 -328 l-1 -315 -325 0 -325 0 -3 -205
-2 -206 533 -2 534 -2 0 535 0 535 -204 0 c-155 0 -203 -3 -204 -12z"/>
<path d="M6325 4940 c4 -6 14 -9 23 -8 16 3 17 -23 20 -294 2 -293 2 -297 -18
-293 -11 2 -20 0 -20 -6 0 -5 52 -9 120 -9 73 0 120 4 120 10 0 6 -3 9 -7 9
-40 -6 -39 -12 -39 299 l0 297 -103 3 c-70 2 -101 -1 -96 -8z"/>
<path d="M7697 4938 c-7 -5 -3 -8 11 -8 26 0 24 26 24 -330 0 -282 0 -263 -10
-256 -4 2 -14 1 -22 -5 -10 -5 19 -9 83 -9 92 0 97 1 97 21 0 21 0 21 19 -2
17 -21 28 -24 85 -24 50 0 71 5 92 21 46 34 67 87 67 169 0 90 -23 156 -64
186 -53 37 -143 30 -174 -14 -18 -25 -17 -32 -19 133 l-1 124 -88 1 c-49 0
-94 -3 -100 -7z m281 -280 c10 -38 9 -265 -2 -290 -16 -37 -84 -18 -87 25 -1
18 -1 176 0 218 2 71 73 108 89 47z"/>
<path d="M4469 4915 c-16 -9 -29 -26 -33 -45 -11 -55 25 -95 82 -92 50 3 86
43 78 86 -11 59 -70 82 -127 51z"/>
<path d="M3845 4890 c4 -6 10 -8 15 -5 14 9 27 -18 103 -225 136 -368 120
-335 160 -338 l34 -3 46 128 c25 70 70 198 100 283 42 122 58 154 71 152 9 -2
16 2 16 8 0 6 -25 10 -60 10 -33 0 -60 -4 -60 -9 0 -6 8 -8 18 -6 42 8 41 -9
-13 -167 -58 -170 -93 -253 -94 -226 -1 9 -28 97 -62 195 -33 98 -61 182 -62
188 -1 5 10 9 26 9 15 -1 27 3 27 7 0 5 -61 9 -136 9 -89 0 -133 -3 -129 -10z"/>
<path d="M6595 4891 c3 -6 14 -8 25 -6 13 3 20 -2 21 -13 5 -89 1 -511 -5
-521 -4 -6 -11 -9 -15 -7 -4 3 -13 1 -21 -5 -10 -5 33 -9 118 -9 85 0 132 4
132 10 0 6 -6 10 -12 9 -33 -4 -35 2 -35 131 l0 130 82 0 81 0 0 -130 c0 -128
-2 -135 -33 -131 -7 1 -13 -3 -13 -9 0 -6 45 -10 125 -10 80 0 125 4 125 10 0
6 -6 10 -12 9 -7 -1 -17 -1 -23 0 -6 1 -9 93 -9 259 2 302 1 285 14 277 5 -3
18 -1 27 4 13 8 -19 10 -115 11 -88 0 -131 -3 -127 -10 4 -6 10 -8 15 -5 19
12 27 -28 26 -135 l-1 -115 -81 -3 -82 -3 2 128 c1 126 1 128 24 127 12 -1 22
3 22 7 0 5 -59 9 -131 9 -78 0 -128 -4 -124 -9z"/>
<path d="M5162 4842 c-61 -15 -63 -17 -62 -46 4 -64 1 -76 -20 -76 -11 0 -20
-4 -20 -9 0 -6 9 -8 20 -6 23 4 22 11 21 -174 0 -136 12 -175 63 -196 44 -19
97 -19 139 -2 43 18 57 37 63 84 l4 38 -12 -30 c-21 -50 -32 -62 -60 -69 -24
-5 -28 -3 -36 26 -10 39 -10 298 0 314 4 6 26 10 48 9 22 -1 43 2 46 7 3 4
-19 8 -49 8 l-55 0 3 53 c2 62 -3 87 -19 86 -6 -1 -39 -8 -74 -17z"/>
<path d="M4914 4720 c-12 -4 -31 -21 -44 -37 l-23 -28 5 33 5 32 -106 0 c-77
-1 -101 -3 -88 -11 9 -5 22 -7 27 -4 7 4 10 -55 8 -177 -2 -131 -6 -183 -15
-183 -6 0 -15 -3 -19 -7 -4 -5 50 -8 119 -8 86 0 127 4 127 11 0 6 -7 9 -15 5
-38 -14 -42 1 -40 132 1 70 5 138 9 152 11 34 46 70 68 70 25 0 23 -36 -2 -43
-24 -6 -26 -34 -4 -65 11 -15 25 -22 50 -22 45 0 74 29 74 75 0 67 -66 103
-136 75z"/>
<path d="M5976 4716 c-55 -21 -80 -67 -64 -117 9 -26 32 -39 74 -39 44 0 86
82 49 96 -23 9 -19 51 6 59 37 12 49 -13 52 -106 l2 -84 -50 -3 c-110 -6 -156
-34 -158 -96 -2 -71 40 -106 125 -106 29 0 46 7 65 27 17 16 29 21 31 14 6
-19 58 -41 96 -41 45 0 82 15 94 37 13 25 22 94 11 87 -5 -3 -9 -18 -9 -33 0
-31 -16 -52 -36 -44 -11 4 -14 33 -15 127 0 194 -24 229 -157 234 -49 1 -91
-3 -116 -12z m119 -262 c1 -49 -18 -104 -34 -104 -25 0 -29 104 -5 138 24 35
39 22 39 -34z"/>
<path d="M4390 4711 c0 -5 11 -8 24 -7 l24 3 -1 -181 c-2 -163 -4 -181 -19
-178 -9 1 -19 -2 -23 -8 -4 -7 37 -10 121 -10 70 0 124 3 120 8 -4 4 -12 8
-17 8 -5 1 -13 2 -19 3 -6 1 -10 70 -10 186 l0 185 -100 0 c-55 0 -100 -4
-100 -9z"/>
<path d="M5383 4709 c9 -5 22 -7 27 -4 6 4 10 -13 10 -42 1 -26 1 -94 2 -149
0 -71 5 -112 16 -134 34 -70 159 -81 214 -18 l18 21 0 -26 0 -27 95 0 c55 0
95 4 95 10 0 5 -6 7 -14 4 -26 -10 -30 20 -31 196 l0 175 -89 3 c-51 2 -94 -2
-99 -7 -7 -7 -4 -9 11 -6 25 5 24 12 24 -173 0 -96 -4 -128 -16 -147 -18 -27
-50 -33 -63 -12 -4 6 -8 86 -8 177 l0 165 -105 2 c-77 2 -100 0 -87 -8z"/>
<path d="M7195 4711 c11 -5 23 -7 28 -4 4 2 7 -58 8 -134 1 -152 2 -166 21
-201 33 -63 159 -69 208 -10 l19 23 1 -27 0 -28 95 0 c53 0 95 4 95 9 0 6 -9
8 -19 6 -26 -5 -27 3 -26 203 l0 172 -100 0 c-65 0 -95 -4 -85 -9 8 -6 18 -7
22 -5 9 6 11 -31 9 -191 -1 -78 -6 -116 -17 -132 -16 -25 -48 -30 -60 -11 -5
7 -8 87 -9 178 l0 165 -105 2 c-63 1 -97 -1 -85 -6z"/>
<path d="M6695 4070 c3 -5 12 -7 20 -3 8 3 16 1 16 -3 4 -25 5 -571 1 -581 -2
-7 -7 -11 -11 -9 -4 3 -13 1 -21 -5 -10 -5 27 -9 103 -9 78 0 116 3 112 10 -4
6 -11 8 -16 5 -16 -10 -11 260 5 299 15 36 51 55 69 37 11 -11 19 -300 9 -328
-2 -6 -10 -9 -18 -6 -8 3 -14 0 -14 -6 0 -7 38 -11 115 -11 65 0 115 4 115 9
0 6 -9 8 -20 6 -22 -4 -21 -14 -22 180 0 123 -15 166 -65 190 -54 26 -120 15
-155 -24 l-28 -31 0 145 0 145 -101 0 c-61 0 -98 -4 -94 -10z"/>
<path d="M3840 4024 c-98 -42 -138 -151 -90 -248 24 -49 65 -78 153 -105 121
-37 147 -57 149 -116 1 -30 -4 -43 -27 -63 -25 -21 -36 -24 -82 -20 -72 6
-129 53 -200 164 -10 16 -12 1 -11 -83 0 -57 2 -103 5 -103 2 0 11 6 18 14 12
11 23 12 71 0 92 -21 184 -13 234 20 103 68 109 238 11 304 -19 12 -73 34
-120 49 -101 31 -140 63 -135 109 4 39 46 74 89 74 64 0 110 -31 160 -107 15
-24 31 -43 35 -43 5 0 7 33 5 73 -4 94 -2 89 -22 78 -11 -6 -26 -5 -42 1 -46
17 -163 18 -201 2z"/>
<path d="M7745 3972 l-61 -17 0 -50 c0 -44 -3 -50 -22 -53 -28 -4 -29 -20 0
-18 21 1 21 -2 23 -154 1 -176 9 -200 72 -221 46 -15 130 -5 156 18 17 15 47
71 47 88 0 15 -19 2 -23 -17 -14 -52 -63 -82 -88 -52 -15 18 -19 322 -4 333 6
4 27 7 48 6 21 -1 40 2 43 7 3 4 -17 8 -44 8 -57 0 -59 2 -56 83 2 65 4 65
-91 39z"/>
<path d="M4315 3845 c-52 -18 -110 -83 -119 -132 -15 -93 4 -174 52 -216 27
-25 88 -46 132 -47 83 0 159 46 175 107 9 39 -2 40 -18 1 -38 -91 -148 -107
-176 -27 -12 34 -14 220 -3 254 19 56 52 75 83 48 19 -16 14 -53 -7 -53 -22 0
-17 -57 6 -80 29 -29 74 -26 100 7 24 31 23 66 -3 105 -31 46 -139 62 -222 33z"/>
<path d="M4834 3844 c-17 -8 -36 -25 -42 -37 -10 -20 -11 -20 -11 11 l-1 32
-100 0 c-64 0 -100 -4 -100 -11 0 -5 4 -8 9 -5 5 4 15 4 23 1 20 -8 20 -352 0
-360 -8 -3 -18 -3 -23 1 -5 3 -9 0 -9 -5 0 -7 46 -11 133 -11 81 0 127 4 118
9 -8 5 -23 8 -33 6 -17 -4 -18 5 -18 119 0 68 3 137 6 155 8 38 48 84 71 79
24 -5 28 -29 5 -35 -24 -6 -33 -33 -19 -59 15 -27 27 -34 63 -34 40 0 66 29
66 75 0 73 -65 105 -138 69z"/>
<path d="M5116 3845 c-51 -18 -104 -70 -116 -115 -15 -55 -11 -131 9 -177 50
-109 251 -137 331 -47 16 19 30 44 30 56 0 18 -14 18 -15 0 -2 -40 -63 -82
-118 -82 -57 0 -92 60 -92 155 l0 30 118 3 118 3 -7 47 c-8 60 -17 75 -59 107
-41 32 -137 42 -199 20z m104 -24 c5 -11 10 -45 10 -75 l0 -56 -44 0 -44 0 5
53 c3 28 9 62 14 75 10 27 44 29 59 3z"/>
<path d="M5560 3850 c-91 -26 -139 -85 -145 -177 -6 -103 38 -179 121 -208 46
-16 151 -13 185 6 29 15 67 57 75 82 10 31 -4 30 -20 -1 -23 -44 -63 -72 -103
-72 -69 0 -91 28 -100 125 l-6 65 115 0 c63 0 117 2 120 5 9 9 -13 97 -30 123
-8 13 -28 30 -44 38 -32 17 -130 25 -168 14z m85 -31 c4 -11 8 -45 10 -75 l3
-54 -45 0 -45 0 5 60 c2 33 10 67 17 75 18 22 48 18 55 -6z"/>
<path d="M6064 3824 l-34 -31 0 28 0 29 -101 0 c-61 0 -98 -4 -94 -10 3 -5 12
-7 20 -4 21 8 24 -19 23 -203 -1 -151 -2 -161 -19 -158 -10 2 -21 0 -24 -6 -4
-5 42 -9 116 -9 67 0 119 3 115 8 -4 4 -13 7 -19 7 -8 0 -13 38 -15 125 -3
138 12 204 50 216 37 12 43 -10 44 -169 1 -154 -1 -181 -16 -172 -5 3 -11 1
-15 -5 -4 -7 35 -10 115 -10 73 0 119 4 115 9 -3 6 -14 8 -25 6 -19 -4 -20 2
-20 139 0 170 -11 209 -66 232 -56 23 -111 15 -150 -22z"/>
<path d="M6431 3842 c-63 -32 -92 -106 -66 -168 19 -44 42 -60 130 -89 83 -28
108 -46 98 -73 -10 -29 -35 -42 -81 -42 -57 0 -96 24 -124 76 -12 24 -25 41
-28 38 -8 -9 -7 -134 2 -134 4 0 8 4 8 9 0 15 31 21 52 10 64 -34 184 -15 221
36 21 29 28 98 15 136 -14 41 -40 59 -135 93 -78 28 -88 34 -91 58 -5 42 60
64 120 40 28 -12 78 -70 78 -93 0 -10 2 -11 8 -2 4 7 7 25 6 40 -1 15 -3 40
-3 56 -1 24 -3 26 -20 15 -15 -9 -28 -9 -59 0 -54 17 -91 15 -131 -6z"/>
<path d="M7341 3850 c-103 -25 -160 -151 -124 -270 24 -81 72 -116 170 -126
158 -17 244 72 229 235 -7 76 -34 123 -86 148 -40 19 -138 26 -189 13z m108
-35 c15 -31 20 -272 6 -314 -11 -34 -39 -44 -67 -22 -22 19 -23 24 -23 174 0
136 2 157 18 175 24 27 49 22 66 -13z"/>
<path d="M8054 3841 c-40 -24 -55 -44 -64 -86 -11 -50 5 -101 41 -128 17 -12
65 -33 107 -47 71 -23 77 -27 80 -55 5 -38 -19 -55 -76 -55 -59 0 -95 24 -127
82 -14 26 -27 48 -29 48 -1 0 -2 -34 -2 -75 0 -41 4 -75 8 -75 4 0 8 4 8 9 0
18 32 20 67 6 105 -44 221 13 228 112 5 79 -38 130 -130 153 -75 19 -105 38
-105 64 0 31 26 46 77 46 46 0 74 -18 103 -65 27 -44 35 -44 33 -3 -1 18 -2
46 -2 62 -1 27 -2 28 -19 13 -13 -12 -22 -13 -36 -5 -34 19 -130 18 -162 -1z"/>
</g>
</svg>
